<?xml version="1.0" encoding="UTF-8" standalone="no"?>
<!DOCTYPE svg PUBLIC "-//W3C//DTD SVG 1.1//EN" "http://www.w3.org/Graphics/SVG/1.1/DTD/svg11.dtd">
<svg xmlns="http://www.w3.org/2000/svg" version="1.1" viewBox="0.00 0.00 800.00 540.00">
<g stroke-width="2.00" fill="none" stroke-linecap="butt">
<path stroke="#d2d6d9" vector-effect="non-scaling-stroke" d="
  M 544.99 181.34
  A 24.32 24.32 0.0 0 0 520.67 157.02
  L 283.51 157.02
  A 24.32 24.32 0.0 0 0 259.19 181.34
  L 259.19 361.16
  A 24.32 24.32 0.0 0 0 283.51 385.48
  L 520.67 385.48
  A 24.32 24.32 0.0 0 0 544.99 361.16
  L 544.99 181.34"
/>
<path stroke="#d2d6d9" vector-effect="non-scaling-stroke" d="
  M 281.28 365.94
  A 3.49 3.30 55.8 0 0 282.69 366.25
  Q 400.67 366.25 519.13 366.25
  C 522.56 366.25 525.76 365.76 525.75 361.75
  C 525.71 306.94 525.63 252.12 525.91 197.31
  Q 525.96 188.62 525.65 180.39
  A 4.36 4.35 89.0 0 0 521.31 176.20
  Q 403.89 175.81 286.06 176.23
  C 282.52 176.25 278.29 176.14 278.29 181.00
  Q 278.24 271.00 278.23 361.00
  Q 278.23 364.54 281.28 365.94"
/>
<path stroke="#d2d6d9" vector-effect="non-scaling-stroke" d="
  M 354.32 223.65
  A 28.46 28.46 0.0 0 0 325.86 195.19
  A 28.46 28.46 0.0 0 0 297.40 223.65
  A 28.46 28.46 0.0 0 0 325.86 252.11
  A 28.46 28.46 0.0 0 0 354.32 223.65"
/>
<path stroke="#d2d6d9" vector-effect="non-scaling-stroke" d="
  M 506.75 280.88
  A 0.71 0.71 0.0 0 0 506.54 280.38
  L 445.48 219.44
  A 0.71 0.71 0.0 0 0 444.48 219.44
  L 369.25 294.54
  A 0.71 0.71 0.0 0 1 368.25 294.54
  L 345.33 271.81
  A 0.71 0.71 0.0 0 0 344.33 271.81
  L 297.46 318.65
  A 0.71 0.71 0.0 0 0 297.25 319.15
  L 297.25 346.54
  A 0.71 0.71 0.0 0 0 297.96 347.25
  L 506.04 347.25
  A 0.71 0.71 0.0 0 0 506.75 346.54
  L 506.75 280.88"
/>
</g>
<path fill="#e9eef1" d="
  M 0.00 0.00
  L 800.00 0.00
  L 800.00 540.00
  L 0.00 540.00
  L 0.00 0.00
  Z
  M 544.99 181.34
  A 24.32 24.32 0.0 0 0 520.67 157.02
  L 283.51 157.02
  A 24.32 24.32 0.0 0 0 259.19 181.34
  L 259.19 361.16
  A 24.32 24.32 0.0 0 0 283.51 385.48
  L 520.67 385.48
  A 24.32 24.32 0.0 0 0 544.99 361.16
  L 544.99 181.34
  Z"
/>
<path fill="#babec1" d="
  M 544.99 361.16
  A 24.32 24.32 0.0 0 1 520.67 385.48
  L 283.51 385.48
  A 24.32 24.32 0.0 0 1 259.19 361.16
  L 259.19 181.34
  A 24.32 24.32 0.0 0 1 283.51 157.02
  L 520.67 157.02
  A 24.32 24.32 0.0 0 1 544.99 181.34
  L 544.99 361.16
  Z
  M 281.28 365.94
  A 3.49 3.30 55.8 0 0 282.69 366.25
  Q 400.67 366.25 519.13 366.25
  C 522.56 366.25 525.76 365.76 525.75 361.75
  C 525.71 306.94 525.63 252.12 525.91 197.31
  Q 525.96 188.62 525.65 180.39
  A 4.36 4.35 89.0 0 0 521.31 176.20
  Q 403.89 175.81 286.06 176.23
  C 282.52 176.25 278.29 176.14 278.29 181.00
  Q 278.24 271.00 278.23 361.00
  Q 278.23 364.54 281.28 365.94
  Z"
/>
<path fill="#e9eef1" d="
  M 281.28 365.94
  Q 278.23 364.54 278.23 361.00
  Q 278.24 271.00 278.29 181.00
  C 278.29 176.14 282.52 176.25 286.06 176.23
  Q 403.89 175.81 521.31 176.20
  A 4.36 4.35 89.0 0 1 525.65 180.39
  Q 525.96 188.62 525.91 197.31
  C 525.63 252.12 525.71 306.94 525.75 361.75
  C 525.76 365.76 522.56 366.25 519.13 366.25
  Q 400.67 366.25 282.69 366.25
  A 3.49 3.30 55.8 0 1 281.28 365.94
  Z
  M 354.32 223.65
  A 28.46 28.46 0.0 0 0 325.86 195.19
  A 28.46 28.46 0.0 0 0 297.40 223.65
  A 28.46 28.46 0.0 0 0 325.86 252.11
  A 28.46 28.46 0.0 0 0 354.32 223.65
  Z
  M 506.75 280.88
  A 0.71 0.71 0.0 0 0 506.54 280.38
  L 445.48 219.44
  A 0.71 0.71 0.0 0 0 444.48 219.44
  L 369.25 294.54
  A 0.71 0.71 0.0 0 1 368.25 294.54
  L 345.33 271.81
  A 0.71 0.71 0.0 0 0 344.33 271.81
  L 297.46 318.65
  A 0.71 0.71 0.0 0 0 297.25 319.15
  L 297.25 346.54
  A 0.71 0.71 0.0 0 0 297.96 347.25
  L 506.04 347.25
  A 0.71 0.71 0.0 0 0 506.75 346.54
  L 506.75 280.88
  Z"
/>
<g>
<circle fill="#babec1" cx="325.86" cy="223.65" r="28.46"/>
<path fill="#babec1" d="
  M 506.75 280.88
  L 506.75 346.54
  A 0.71 0.71 0.0 0 1 506.04 347.25
  L 297.96 347.25
  A 0.71 0.71 0.0 0 1 297.25 346.54
  L 297.25 319.15
  A 0.71 0.71 0.0 0 1 297.46 318.65
  L 344.33 271.81
  A 0.71 0.71 0.0 0 1 345.33 271.81
  L 368.25 294.54
  A 0.71 0.71 0.0 0 0 369.25 294.54
  L 444.48 219.44
  A 0.71 0.71 0.0 0 1 445.48 219.44
  L 506.54 280.38
  A 0.71 0.71 0.0 0 1 506.75 280.88
  Z"
/>
</g>
</svg>
